<?xml version="1.0" standalone="no"?>
<!DOCTYPE svg PUBLIC "-//W3C//DTD SVG 20010904//EN"
 "http://www.w3.org/TR/2001/REC-SVG-20010904/DTD/svg10.dtd">
<svg version="1.0" xmlns="http://www.w3.org/2000/svg"
 width="512.000000pt" height="512.000000pt" viewBox="0 0 512.000000 512.000000"
 preserveAspectRatio="xMidYMid meet">
<metadata>
Created by potrace 1.11, written by Peter Selinger 2001-2013
</metadata>
<g transform="translate(0.000000,512.000000) scale(0.100000,-0.100000)"
fill="#000000" stroke="none">
<path d="M1795 5069 c-83 -16 -164 -70 -207 -140 -46 -73 -54 -178 -22 -270
24 -67 103 -151 159 -169 22 -7 43 -17 46 -22 3 -5 6 -81 6 -168 l1 -160 -96
0 -95 0 -99 -97 c-54 -54 -104 -97 -111 -95 -6 2 -101 94 -210 204 -109 110
-208 205 -221 211 -14 8 -72 12 -160 11 l-139 -1 -137 -139 -138 -139 1 -147
2 -148 325 -325 c178 -178 322 -326 320 -328 -3 -2 -194 -97 -425 -212 -230
-115 -427 -217 -437 -227 -17 -17 -18 -60 -18 -749 l0 -732 227 -229 c126
-125 230 -238 233 -250 7 -28 4 -114 -5 -128 -3 -5 -12 -10 -18 -10 -23 0 -92
-42 -124 -76 -92 -96 -113 -248 -48 -359 49 -85 108 -128 201 -151 109 -25
205 5 289 90 43 45 55 65 70 120 41 153 -25 301 -165 366 -50 23 -50 24 -50
71 l0 47 178 -3 c97 -1 184 -5 192 -9 8 -4 116 -108 240 -231 l225 -225 124 0
123 0 352 -117 c339 -114 387 -125 431 -104 11 5 119 42 240 81 121 39 229 75
240 80 11 5 57 20 103 35 70 21 103 25 204 25 l121 0 196 195 c108 107 219
212 248 234 l51 38 164 -1 163 -1 1 -40 c1 -46 -7 -61 -42 -69 -71 -18 -153
-110 -180 -201 -31 -108 -2 -217 79 -298 224 -225 594 -4 508 303 -24 84 -92
161 -174 195 l-37 15 0 69 0 69 233 233 232 234 2 729 c1 402 -2 737 -7 746
-5 9 -204 114 -442 233 l-434 217 326 327 326 328 -1 147 -1 148 -140 137
-139 138 -130 -2 c-71 0 -138 -2 -148 -2 -11 -1 -110 -92 -221 -203 -111 -112
-209 -209 -217 -216 -14 -11 -31 2 -117 88 l-101 100 -96 0 -95 0 0 163 0 162
51 23 c156 72 225 256 153 408 -33 70 -81 117 -154 152 -197 93 -436 -66 -426
-284 4 -99 20 -137 85 -207 34 -36 122 -91 138 -85 4 2 7 -72 8 -164 l0 -168
-631 0 -630 0 0 164 0 165 42 16 c23 9 63 34 88 56 147 129 133 368 -28 478
-71 49 -150 66 -231 50z m143 -166 c65 -49 87 -121 58 -196 -57 -149 -285
-116 -303 45 -6 48 18 108 53 139 48 42 144 48 192 12z m1391 7 c84 -42 114
-160 59 -232 -67 -87 -197 -89 -261 -3 -29 41 -37 108 -17 152 42 92 134 127
219 83z m-2247 -879 l197 -197 -64 -66 -64 -66 -83 84 -83 85 0 73 c0 68 -3
78 -31 113 -36 46 -105 83 -154 83 -52 0 -130 -43 -160 -87 -35 -54 -35 -152
0 -204 42 -63 83 -84 167 -84 l73 0 98 -98 98 -97 -2 -128 c-1 -70 -2 -128 -3
-128 0 -1 -125 122 -276 274 l-275 276 0 85 0 86 97 97 96 97 86 -1 85 0 198
-197z m3410 101 l99 -99 -2 -85 -2 -86 -277 -277 -277 -277 -1 129 0 130 100
101 100 101 57 -6 c111 -10 196 62 207 176 6 58 -24 122 -79 165 -33 26 -45
30 -105 30 -55 1 -74 -4 -103 -24 -63 -42 -84 -83 -84 -167 l-1 -74 -79 -79
c-44 -44 -84 -80 -88 -80 -5 0 -36 28 -68 62 l-59 62 196 197 197 197 85 1 86
1 98 -98z m-2482 -149 c3 -7 5 -132 4 -278 0 -264 -2 -283 -35 -289 -39 -6
-97 -51 -150 -115 -23 -29 -48 -111 -50 -166 -5 -203 187 -351 387 -298 271
70 302 451 48 570 l-52 23 0 283 -1 282 382 -1 c210 -1 387 -2 394 -3 9 -1 12
-73 12 -280 l0 -278 -49 -23 c-157 -74 -227 -254 -156 -403 115 -241 433 -243
558 -5 16 31 23 64 25 120 2 67 -1 83 -27 135 -16 32 -38 68 -49 80 -21 22
-116 91 -116 84 0 -2 -9 -1 -20 2 -20 7 -20 15 -20 284 -1 263 0 278 18 283
10 3 93 5 184 4 l165 -1 212 -212 212 -212 -1 -439 0 -440 -234 -234 -234
-234 0 -262 1 -262 233 -234 234 -234 1 -205 0 -205 -213 -212 -213 -213 -180
0 c-112 0 -181 4 -183 10 -5 17 -1 215 5 220 3 3 16 8 29 10 48 9 129 58 177
105 81 80 121 185 116 301 -11 266 -269 446 -524 365 -36 -11 -71 -26 -78 -33
-7 -7 -17 -13 -22 -13 -22 0 -116 -111 -144 -170 -28 -59 -31 -74 -31 -160 0
-110 17 -166 76 -246 48 -65 118 -116 192 -140 l57 -19 -2 -115 -3 -115 -392
0 c-386 0 -393 0 -394 20 0 23 0 196 0 208 1 4 8 7 17 7 9 0 45 14 80 31 56
26 117 76 162 133 12 14 44 82 47 96 0 3 3 10 7 16 15 22 20 142 9 193 -68
318 -454 437 -680 210 -158 -158 -157 -420 3 -574 30 -29 93 -76 103 -77 4 0
18 -4 31 -9 13 -5 34 -12 47 -15 25 -6 25 -7 25 -123 l0 -116 -182 0 -181 0
-213 213 -212 213 0 201 c0 140 3 205 11 213 7 7 112 114 235 237 l222 224 0
264 0 264 -235 236 -235 236 0 434 0 435 208 208 c114 114 212 211 219 215 21
13 357 8 363 -5z m2335 -34 c0 -29 -42 -54 -60 -36 -24 25 -25 47 -3 67 19 17
24 18 42 6 12 -7 21 -24 21 -37z m-3509 16 c9 -37 -2 -55 -34 -55 -20 0 -32 7
-39 23 -15 33 1 57 37 57 23 0 31 -5 36 -25z m1325 -697 c173 -97 50 -355
-135 -284 -121 46 -135 213 -24 280 52 31 109 32 159 4z m931 5 c96 -47 120
-176 47 -251 -97 -99 -260 -43 -273 95 -7 68 38 140 104 166 25 10 93 4 122
-10z m-2018 -440 c0 -98 4 -187 9 -198 6 -11 112 -122 236 -247 l226 -227 0
-198 0 -198 -31 -35 c-18 -19 -124 -127 -236 -240 l-204 -205 1 -200 c1 -110
0 -205 -3 -211 -2 -8 -58 -12 -181 -12 l-178 0 -213 213 -214 214 -1 664 0
664 90 44 c50 24 93 48 96 52 3 5 8 8 10 6 2 -1 136 64 297 144 162 81 295
147 296 147 1 0 1 -80 0 -177z m3747 -226 c0 -7 1 -306 1 -665 l1 -654 -213
-213 -213 -213 -182 0 -182 1 0 212 -1 213 -233 233 -233 233 -1 205 0 204
232 234 c128 129 233 242 234 251 0 9 0 91 0 181 0 91 2 168 5 172 6 11 784
-380 785 -394z m-2631 -1348 c101 -55 144 -120 147 -224 4 -158 -105 -269
-260 -264 -77 3 -113 17 -165 66 -54 50 -82 113 -82 186 0 118 65 205 190 251
26 10 144 -1 170 -15z m923 5 c26 -9 47 -20 47 -25 0 -5 6 -9 13 -9 17 0 73
-69 88 -107 6 -15 12 -45 14 -66 1 -21 5 -40 8 -43 9 -10 -32 -115 -58 -150
-29 -37 -94 -79 -140 -88 -94 -20 -167 -1 -234 59 -170 154 -61 442 170 445
25 0 66 -7 92 -16z m1415 -826 c78 -73 60 -206 -36 -255 -143 -72 -285 73
-212 216 14 28 34 46 70 64 48 24 53 24 101 12 28 -8 63 -24 77 -37z m-3797
30 c108 -37 137 -166 57 -254 -79 -87 -210 -63 -261 48 -21 45 -21 68 -2 115
37 89 115 123 206 91z m2058 -222 c-8 -8 -217 -76 -234 -76 -17 0 -226 68
-234 76 -2 2 103 4 234 4 131 0 236 -2 234 -4z"/>
</g>
</svg>
